<svg width="118" height="87" viewBox="0 0 118 87" fill="none" xmlns="http://www.w3.org/2000/svg">
<line x1="1.5" y1="2.43555" x2="1.5" y2="18.1452" stroke="white" stroke-width="3" stroke-linecap="round"/>
<line x1="17.2097" y1="2.43555" x2="1.49998" y2="2.43555" stroke="white" stroke-width="3" stroke-linecap="round"/>
<line x1="1.5" y1="85.5" x2="17.2097" y2="85.5" stroke="white" stroke-width="3" stroke-linecap="round"/>
<line x1="1.5" y1="69.7905" x2="1.5" y2="85.5002" stroke="white" stroke-width="3" stroke-linecap="round"/>
<line x1="116.371" y1="1.5" x2="100.661" y2="1.5" stroke="white" stroke-width="3" stroke-linecap="round"/>
<line x1="116.371" y1="17.2095" x2="116.371" y2="1.49979" stroke="white" stroke-width="3" stroke-linecap="round"/>
<line x1="116.371" y1="84.5645" x2="116.371" y2="68.8548" stroke="white" stroke-width="3" stroke-linecap="round"/>
<line x1="100.661" y1="84.5645" x2="116.371" y2="84.5645" stroke="white" stroke-width="3" stroke-linecap="round"/>
<line x1="17.4033" y1="18.3389" x2="17.4033" y2="68.6614" stroke="white" stroke-width="3" stroke-linecap="round"/>
<line x1="23.0161" y1="18.3389" x2="23.0161" y2="68.6614" stroke="white" stroke-width="3" stroke-linecap="round"/>
<line x1="28.629" y1="18.3389" x2="28.629" y2="68.6614" stroke="white" stroke-width="3" stroke-linecap="round"/>
<line x1="36.1129" y1="18.3389" x2="36.1129" y2="68.6614" stroke="white" stroke-width="3" stroke-linecap="round"/>
<line x1="41.7258" y1="18.3389" x2="41.7258" y2="68.6614" stroke="white" stroke-width="3" stroke-linecap="round"/>
<line x1="47.3387" y1="18.3389" x2="47.3387" y2="68.6614" stroke="white" stroke-width="3" stroke-linecap="round"/>
<line x1="52.9516" y1="18.3389" x2="52.9516" y2="68.6614" stroke="white" stroke-width="3" stroke-linecap="round"/>
<line x1="61.371" y1="18.3389" x2="61.371" y2="68.6614" stroke="white" stroke-width="3" stroke-linecap="round"/>
<line x1="66.9839" y1="18.3389" x2="66.9839" y2="68.6614" stroke="white" stroke-width="3" stroke-linecap="round"/>
<line x1="75.4032" y1="18.3389" x2="75.4032" y2="68.6614" stroke="white" stroke-width="3" stroke-linecap="round"/>
<line x1="81.0161" y1="18.3389" x2="81.0161" y2="68.6614" stroke="white" stroke-width="3" stroke-linecap="round"/>
<line x1="86.6291" y1="18.3389" x2="86.6291" y2="68.6614" stroke="white" stroke-width="3" stroke-linecap="round"/>
<line x1="94.1129" y1="18.3389" x2="94.1129" y2="68.6614" stroke="white" stroke-width="3" stroke-linecap="round"/>
<line x1="99.7258" y1="18.3389" x2="99.7258" y2="68.6614" stroke="white" stroke-width="3" stroke-linecap="round"/>
</svg>
